<svg xmlns="http://www.w3.org/2000/svg" width="35.458" height="35.457" viewBox="0 0 35.458 35.457">
  <g id="Group_5366" data-name="Group 5366" transform="translate(-65 -264)">
    <path id="Path_1126" data-name="Path 1126" d="M3.008,0H7.241a3.566,3.566,0,0,1,2.952,2.9c.109,1.294.071,2.6.051,3.893a3.467,3.467,0,0,1-2.132,3.2,10,10,0,0,1-3.264.279,5.985,5.985,0,0,1-3.04-.442A3.659,3.659,0,0,1,0,7.238V3.012A3.686,3.686,0,0,1,3.008,0m.275,2.81c-.343.036-.51.408-.514.718-.021.925-.012,1.851,0,2.776.04.309-.048.681.163.945a1.254,1.254,0,0,0,.943.24c1.03-.007,2.062.032,3.09-.049.343-.036.51-.408.514-.718.021-.925.012-1.851,0-2.776-.041-.31.048-.681-.163-.945a1.254,1.254,0,0,0-.943-.24C5.344,2.767,4.311,2.729,3.283,2.81Z" transform="translate(65 264)" fill="#037ae0"/>
    <path id="Path_1127" data-name="Path 1127" d="M190.768,0H207.19A3.687,3.687,0,0,1,210.2,3.011v.706a1.4,1.4,0,0,1-1.8,1.053c-.73-.127-.923-.971-1.1-1.569-.055-.52-.693-.393-1.045-.431-4.619-.01-9.237.016-13.855-.01a11.1,11.1,0,0,0-1.408.063c-.318.058-.441.417-.459.7-.039,1.039-.033,2.082.014,3.121.009.237.016.562.264.69a2.483,2.483,0,0,0,1.173.156c4.156-.034,8.311,0,12.467-.02.8,0,1.611-.033,2.413.042a1.164,1.164,0,0,1,.973.522,1.355,1.355,0,0,1-.276,1.928c-.435.384-1.061.24-1.586.29q-6.926-.015-13.853,0A6.122,6.122,0,0,1,190,10.021a3.458,3.458,0,0,1-2.231-3.232c-.02-1.3-.059-2.6.051-3.893A3.566,3.566,0,0,1,190.768,0Z" transform="translate(-109.74 264)" fill="#037ae0"/>
    <path id="Path_1128" data-name="Path 1128" d="M0,184.755a3.57,3.57,0,0,1,3.058-2.983,40.5,40.5,0,0,1,4.182.013,3.431,3.431,0,0,1,2.654,1.9,6.434,6.434,0,0,1,.37,2.9,10,10,0,0,1-.279,3.264,3.467,3.467,0,0,1-3.2,2.132c-1.3.02-2.6.058-3.893-.051A3.566,3.566,0,0,1,0,188.985v-4.229m3.283-.2c-.343.036-.51.407-.514.718-.021.925-.012,1.851,0,2.776.04.308-.048.681.163.945a1.254,1.254,0,0,0,.943.24c1.03-.007,2.062.032,3.09-.049.343-.036.51-.408.514-.718.021-.925.012-1.851,0-2.776-.041-.31.048-.68-.163-.945a1.254,1.254,0,0,0-.943-.24C5.344,184.511,4.311,184.472,3.283,184.553Z" transform="translate(65 94.86)" fill="#037ae0"/>
    <path id="Path_1129" data-name="Path 1129" d="M188.05,184.085a3.481,3.481,0,0,1,3.284-2.187c4.848-.01,9.7.011,14.546-.008a6.125,6.125,0,0,1,2.125.236,3.619,3.619,0,0,1,2.237,2.779v.708a1.4,1.4,0,0,1-1.8,1.054c-.73-.128-.923-.972-1.1-1.569-.055-.52-.693-.393-1.045-.431-4.619-.01-9.237.016-13.855-.01a10.979,10.979,0,0,0-1.408.063c-.318.058-.441.417-.459.7-.039,1.039-.033,2.082.014,3.121.009.236.016.562.264.69a2.483,2.483,0,0,0,1.173.156c4.156-.034,8.311,0,12.467-.02.8,0,1.611-.033,2.413.042a1.164,1.164,0,0,1,.973.522,1.355,1.355,0,0,1-.276,1.928c-.435.384-1.061.24-1.586.29-4.848-.019-9.7,0-14.547-.01a3.493,3.493,0,0,1-3.241-1.8,5.978,5.978,0,0,1-.442-3.04A10.372,10.372,0,0,1,188.05,184.085Z" transform="translate(-109.785 94.706)" fill="#037ae0"/>
    <path id="Path_1130" data-name="Path 1130" d="M1.808,364.232a5.985,5.985,0,0,1,3.04-.442,9.981,9.981,0,0,1,3.264.279,3.467,3.467,0,0,1,2.132,3.2c.02,1.3.058,2.6-.051,3.893a3.566,3.566,0,0,1-2.952,2.9H3.008A3.686,3.686,0,0,1,0,371.042v-4.226a3.659,3.659,0,0,1,1.808-2.585m1.476,2.382c-.343.036-.51.407-.514.718-.021.925-.012,1.851,0,2.776.04.307-.048.681.163.945a1.257,1.257,0,0,0,.943.24c1.03-.007,2.062.032,3.09-.049.343-.036.51-.408.514-.718.021-.925.012-1.851,0-2.776-.041-.31.048-.68-.163-.945a1.254,1.254,0,0,0-.943-.24C5.344,366.572,4.311,366.533,3.283,366.614Z" transform="translate(65 -74.597)" fill="#037ae0"/>
    <path id="Path_1131" data-name="Path 1131" d="M189.569,364.315a3.768,3.768,0,0,1,2.069-.434q7.1.012,14.2,0a6.126,6.126,0,0,1,2.125.236A3.618,3.618,0,0,1,210.2,366.9v.717c-.177.449-.45.958-.974,1.046a1.265,1.265,0,0,1-1.68-.906c-.149-.336-.118-.866-.528-1.021a8.27,8.27,0,0,0-1.526-.086c-4.619.024-9.236.014-13.854,0-.367-.013-.956.024-1.051.472a29.36,29.36,0,0,0-.052,3.491c.02.269.121.6.408.689a6.621,6.621,0,0,0,1.112.076c4.849-.008,9.7-.018,14.547,0a1.345,1.345,0,0,1,1.444.968,1.4,1.4,0,0,1-1.055,1.8H190.774a3.57,3.57,0,0,1-2.984-3.058c-.066-1.287-.053-2.578-.01-3.866A3.407,3.407,0,0,1,189.569,364.315Z" transform="translate(-109.742 -74.68)" fill="#037ae0"/>
  </g>
</svg>
