<svg id="g847" xmlns="http://www.w3.org/2000/svg" width="56.449" height="36.754" viewBox="0 0 56.449 36.754">
  <g id="g840" transform="translate(16.019)">
    <path id="path3645" d="M33.721,22.733q0-.263-.012-.522V12.332l-2.731,2.731a12.188,12.188,0,0,0-19.154.338L16.3,19.925a5.931,5.931,0,0,1,1.813-2.034,5.4,5.4,0,0,1,3.421-1.109,1.222,1.222,0,0,1,.433.062,5.9,5.9,0,0,1,4.512,2.717L23.309,22.73c4.013-.016,8.547-.025,10.411,0" transform="translate(-9.309 -10.58)" fill="#1c3aa9"/>
    <path id="path3647" d="M20.406,10.58q-.263,0-.522.012H10.006l2.731,2.731a12.188,12.188,0,0,0,.338,19.154L17.6,28a5.931,5.931,0,0,1-2.034-1.813,5.4,5.4,0,0,1-1.109-3.421,1.222,1.222,0,0,1,.062-.433,5.9,5.9,0,0,1,2.717-4.512L20.4,20.992c-.016-4.013-.025-8.547,0-10.411" transform="translate(-8.253 -10.58)" fill="#4285f4"/>
    <path id="path3649" d="M8.254,27.886q0,.263.012.522v9.878L11,35.556a12.188,12.188,0,0,0,19.154-.338l-4.476-4.523a5.931,5.931,0,0,1-1.813,2.034,5.4,5.4,0,0,1-3.421,1.109,1.222,1.222,0,0,1-.433-.062A5.9,5.9,0,0,1,15.5,31.057l3.169-3.169c-4.013.016-8.547.025-10.411,0" transform="translate(-8.253 -15.698)" fill="#ababab"/>
  </g>
  <path id="path3651" d="M32.052,43.274a2.818,2.818,0,0,0-1.231.26,2.552,2.552,0,0,0-.923.728,3.409,3.409,0,0,0-.574,1.148,5.335,5.335,0,0,0-.2,1.5V48.5a5.359,5.359,0,0,0,.2,1.5,3.481,3.481,0,0,0,.568,1.142,2.5,2.5,0,0,0,.888.728,2.634,2.634,0,0,0,1.172.254,3.227,3.227,0,0,0,1.172-.2,2.251,2.251,0,0,0,.852-.562,2.545,2.545,0,0,0,.527-.9,4.182,4.182,0,0,0,.225-1.2H33.632a4.848,4.848,0,0,1-.142.882,1.6,1.6,0,0,1-.3.6,1.128,1.128,0,0,1-.5.343,2.26,2.26,0,0,1-.746.107,1.489,1.489,0,0,1-.8-.207,1.624,1.624,0,0,1-.539-.58,2.929,2.929,0,0,1-.3-.858,5.96,5.96,0,0,1-.089-1.059V46.9a5.294,5.294,0,0,1,.107-1.107,2.619,2.619,0,0,1,.337-.846,1.576,1.576,0,0,1,.568-.539,1.625,1.625,0,0,1,.817-.2,1.765,1.765,0,0,1,.681.118,1.108,1.108,0,0,1,.473.355,1.655,1.655,0,0,1,.29.6,4.547,4.547,0,0,1,.136.876h1.095a4.27,4.27,0,0,0-.219-1.237,2.583,2.583,0,0,0-.527-.905,2.172,2.172,0,0,0-.823-.556,3,3,0,0,0-1.107-.189Zm26.725,0a2.818,2.818,0,0,0-1.231.26,2.552,2.552,0,0,0-.923.728,3.409,3.409,0,0,0-.574,1.148,5.335,5.335,0,0,0-.2,1.5V48.5a5.359,5.359,0,0,0,.2,1.5,3.481,3.481,0,0,0,.568,1.142,2.5,2.5,0,0,0,.888.728,2.634,2.634,0,0,0,1.172.254,3.227,3.227,0,0,0,1.172-.2,2.251,2.251,0,0,0,.852-.562,2.545,2.545,0,0,0,.527-.9,4.181,4.181,0,0,0,.225-1.2H60.357a4.846,4.846,0,0,1-.142.882,1.6,1.6,0,0,1-.3.6,1.128,1.128,0,0,1-.5.343,2.26,2.26,0,0,1-.746.107,1.489,1.489,0,0,1-.8-.207,1.624,1.624,0,0,1-.539-.58,2.929,2.929,0,0,1-.3-.858,5.96,5.96,0,0,1-.089-1.059V46.9a5.3,5.3,0,0,1,.107-1.107,2.619,2.619,0,0,1,.337-.846,1.577,1.577,0,0,1,.568-.539,1.625,1.625,0,0,1,.817-.2,1.765,1.765,0,0,1,.681.118,1.108,1.108,0,0,1,.473.355,1.656,1.656,0,0,1,.29.6,4.547,4.547,0,0,1,.136.876h1.095a4.275,4.275,0,0,0-.219-1.237,2.585,2.585,0,0,0-.527-.905,2.172,2.172,0,0,0-.823-.556,3,3,0,0,0-1.107-.189Zm-20.487.118-2.775,8.616h1.113l.669-2.249h2.912l.681,2.249H42l-2.781-8.616Zm4.882,0v8.616h1.083V48.635h1.663a3.257,3.257,0,0,0,1.1-.172,2.161,2.161,0,0,0,.8-.509,2.089,2.089,0,0,0,.5-.817,3.361,3.361,0,0,0,.172-1.113,3.105,3.105,0,0,0-.172-1.053,2.293,2.293,0,0,0-.491-.834,2.19,2.19,0,0,0-.811-.55,2.9,2.9,0,0,0-1.1-.2Zm6.149,0v.935h2.261v7.681h1.083V44.327H54.93v-.935Zm13.593,0v8.616H64V48.026h3.468v3.983h1.089V43.392H67.464v3.7H64v-3.7Zm9.747,0-2.775,8.616H71l.669-2.249h2.912l.681,2.249H76.37l-2.781-8.616Zm-28.406.935h1.663a1.469,1.469,0,0,1,.675.142,1.283,1.283,0,0,1,.462.379,1.521,1.521,0,0,1,.266.55,2.3,2.3,0,0,1,.089.639,2.427,2.427,0,0,1-.089.675,1.414,1.414,0,0,1-.266.527,1.2,1.2,0,0,1-.462.343,1.648,1.648,0,0,1-.675.124H44.254Zm-5.5.58,1.178,3.918H37.579Zm34.37,0L74.3,48.825H71.95Zm-50.975.58a1.2,1.2,0,0,0-.7.207,1.657,1.657,0,0,0-.485.562l-.018-.651H19.921v6.4h1.047V47.428a1.519,1.519,0,0,1,.42-.645,1.049,1.049,0,0,1,.7-.237,2.239,2.239,0,0,1,.243.012,1.777,1.777,0,0,1,.231.03l-.006-1.018a.36.36,0,0,0-.077-.024.68.68,0,0,0-.107-.03,1.168,1.168,0,0,0-.124-.018.546.546,0,0,0-.107-.012Zm3.521,0a2.491,2.491,0,0,0-.882.16,1.926,1.926,0,0,0-.757.527,2.71,2.71,0,0,0-.527.947,4.388,4.388,0,0,0-.2,1.426v.722a4.207,4.207,0,0,0,.172,1.272,2.408,2.408,0,0,0,.491.894,2.023,2.023,0,0,0,.787.521,2.955,2.955,0,0,0,1.036.172,3.008,3.008,0,0,0,.74-.083,2.749,2.749,0,0,0,.586-.213,2.056,2.056,0,0,0,.438-.308,2.355,2.355,0,0,0,.314-.355l-.545-.663a2.834,2.834,0,0,1-.278.3,1.935,1.935,0,0,1-.325.231,1.706,1.706,0,0,1-.391.148,1.982,1.982,0,0,1-.479.053,1.376,1.376,0,0,1-1.118-.468,2.349,2.349,0,0,1-.385-1.5v-.148h3.574v-.61a6.046,6.046,0,0,0-.124-1.3,2.588,2.588,0,0,0-.4-.947,1.719,1.719,0,0,0-.7-.58,2.4,2.4,0,0,0-1.03-.2Zm0,.9a1.164,1.164,0,0,1,.568.124.915.915,0,0,1,.355.349,1.608,1.608,0,0,1,.2.539,4.282,4.282,0,0,1,.083.681v.142H24.348a3.741,3.741,0,0,1,.13-.894,1.591,1.591,0,0,1,.278-.562.946.946,0,0,1,.408-.3,1.478,1.478,0,0,1,.5-.083Z" transform="translate(-19.921 -15.373)" fill="#fff"/>
</svg>
